# Blender v2.78 (sub 0) OBJ File: 'Mitten.blend'
# www.blender.org
mtllib Mitten.mtl
o Mitten_Cube
v 0.031508 -0.057470 -0.131255
v 0.031508 -0.057470 0.131255
v -0.031508 -0.057470 0.131255
v -0.031508 -0.057470 -0.131255
v 0.037780 0.157380 -0.157380
v 0.037780 0.157380 0.157380
v -0.037780 0.157380 0.157380
v -0.037780 0.157380 -0.157380
v 0.037780 0.271055 -0.157380
v 0.037780 0.271055 0.157380
v -0.037780 0.271055 0.157380
v -0.037780 0.271055 -0.157380
v 0.037780 0.402569 -0.157380
v 0.037780 0.402569 0.157380
v -0.037780 0.402569 0.157380
v -0.037780 0.402569 -0.157380
v 0.029460 0.458016 -0.122723
v 0.029460 0.458016 0.122723
v -0.029460 0.458016 0.122723
v -0.029460 0.458016 -0.122723
v 0.037780 0.223533 -0.260081
v -0.037779 0.223533 -0.260081
v 0.037780 0.301343 -0.227164
v -0.037779 0.301343 -0.227164
vt 0.0692 0.6718
vt 0.0692 1.0000
vt 0.0000 1.0000
vt 0.0000 0.6718
vt 0.1128 0.2798
vt 0.4585 0.2798
vt 0.4585 0.4279
vt 0.1128 0.4279
vt 0.6000 0.6718
vt 0.5713 0.3920
vt 0.9170 0.3920
vt 0.8883 0.6718
vt 0.9239 0.6709
vt 0.9170 0.3897
vt 1.0000 0.3897
vt 0.9931 0.6709
vt 0.4298 0.0000
vt 0.1415 0.0000
vt 0.0692 0.9386
vt 0.0761 0.6718
vt 0.1453 0.6718
vt 0.1522 0.9386
vt 1.0000 0.2417
vt 0.9170 0.2417
vt 0.9170 0.0704
vt 1.0000 0.0704
vt 0.3829 0.8245
vt 0.2999 0.8245
vt 0.2999 0.6718
vt 0.3829 0.6718
vt 0.5713 0.2439
vt 0.9170 0.2439
vt 0.9261 0.0000
vt 0.9909 0.0000
vt 0.5713 0.0725
vt 0.9170 0.0725
vt 0.4585 0.5992
vt 0.1128 0.5992
vt 0.1522 0.6718
vt 0.2352 0.6718
vt 0.2352 0.8394
vt 0.1522 0.8394
vt 0.2999 0.9850
vt 0.2352 0.9850
vt 0.2352 0.6718
vt 0.2999 0.6718
vt 0.6094 0.0000
vt 0.8789 0.0000
vt 0.4204 0.6718
vt 0.1509 0.6718
vt 0.2261 0.9195
vt 0.1613 0.9195
vt 0.4659 0.7799
vt 0.3829 0.7799
vt 0.3829 0.6718
vt 0.4659 0.6718
vt 0.4585 0.3058
vt 0.4947 0.2044
vt 0.0362 0.4673
vt 0.0000 0.3660
vt 0.5477 0.6718
vt 0.5477 0.7702
vt 0.4659 0.7702
vt 0.4659 0.6718
vn 0.5743 -0.6158 -0.5394
vn 0.5743 -0.6158 0.5394
vn -0.5743 -0.6158 0.5394
vn -0.5743 -0.6158 -0.5394
vn -0.8166 -0.3147 -0.4838
vn -0.6967 -0.0527 0.7154
vn -0.7071 0.0000 0.7071
vn -0.9478 0.2666 -0.1749
vn 0.8166 -0.3147 -0.4838
vn 0.6967 -0.0527 0.7154
vn 0.7071 0.0000 0.7071
vn 0.6589 0.2343 0.7148
vn -0.6589 0.2343 0.7148
vn -0.5869 -0.2386 -0.7736
vn 0.5869 -0.2386 -0.7736
vn 0.9478 0.2666 -0.1749
vn 0.5566 0.7380 0.3813
vn -0.5566 0.7380 0.3813
vn 0.6589 0.2343 -0.7148
vn -0.6589 0.2343 -0.7148
vn 0.5566 0.7380 -0.3813
vn -0.5566 0.7380 -0.3813
vn -0.5769 0.7584 -0.3034
vn 0.5769 0.7584 -0.3034
usemtl MittenMaterial
s 1
f 1/1/1 2/2/2 3/3/3 4/4/4
f 8/5/5 7/6/6 11/7/7 12/8/8
f 1/9/1 5/10/9 6/11/10 2/12/2
f 2/13/2 6/14/10 7/15/6 3/16/3
f 3/17/3 7/6/6 8/5/5 4/18/4
f 5/19/9 1/20/1 4/21/4 8/22/5
f 11/23/7 10/24/11 14/25/12 15/26/13
f 5/27/9 8/28/5 22/29/14 21/30/15
f 7/15/6 6/14/10 10/24/11 11/23/7
f 6/11/10 5/10/9 9/31/16 10/32/11
f 15/26/13 14/25/12 18/33/17 19/34/18
f 10/32/11 9/31/16 13/35/19 14/36/12
f 12/8/8 11/7/7 15/37/13 16/38/20
f 9/39/16 12/40/8 16/41/20 13/42/19
f 17/43/21 20/44/22 19/45/18 18/46/17
f 14/36/12 13/35/19 17/47/21 18/48/17
f 16/38/20 15/37/13 19/49/18 20/50/22
f 13/42/19 16/41/20 20/51/22 17/52/21
f 21/53/15 22/54/14 24/55/23 23/56/24
f 9/31/16 5/10/9 21/57/15 23/58/24
f 8/5/5 12/8/8 24/59/23 22/60/14
f 12/61/8 9/62/16 23/63/24 24/64/23
