# Blender v2.78 (sub 0) OBJ File: 'bookshelf.blend'
# www.blender.org
mtllib bookshelf.mtl
o Book_Shelf_Cube
v 1.000000 0.000000 -1.000000
v 1.000000 0.000000 1.000000
v 0.000000 0.000000 1.000000
v 0.000000 0.000000 -1.000000
v 1.000000 4.000000 -0.999999
v 1.000000 4.000000 1.000001
v 0.000000 4.000000 1.000000
v 0.000000 4.000000 -1.000000
v 0.000000 3.000000 1.000000
v 0.000000 1.000000 1.000000
v 0.000000 2.000000 1.000000
v 0.000000 0.250000 1.000000
v 0.000000 3.000000 -1.000000
v 0.000000 1.000000 -1.000000
v 0.000000 2.000000 -1.000000
v 0.000000 0.250000 -1.000000
v 1.000000 1.960000 1.000000
v 1.000000 2.960000 1.000000
v 1.000000 0.960000 1.000000
v 1.000000 3.960000 1.000000
v 1.000000 3.000000 1.000000
v 1.000000 1.000000 1.000000
v 1.000000 2.000000 1.000000
v 1.000000 0.250000 1.000000
v 1.000000 1.960000 -1.000000
v 1.000000 2.960000 -1.000000
v 1.000000 0.960000 -1.000000
v 1.000000 3.960000 -1.000000
v 1.000000 3.000000 -1.000000
v 1.000000 1.000000 -1.000000
v 1.000000 2.000000 -1.000000
v 1.000000 0.250000 -1.000000
v 1.000000 0.000000 -0.900000
v 1.000000 4.000000 -0.899999
v 1.000000 1.960000 -0.900000
v 1.000000 2.960000 -0.900000
v 1.000000 0.960000 -0.900000
v 1.000000 3.960000 -0.899999
v 1.000000 3.000000 -0.899999
v 1.000000 1.000000 -0.900000
v 1.000000 2.000000 -0.900000
v 1.000000 0.250000 -0.900000
v 1.000000 0.000000 0.900000
v 1.000000 4.000000 0.900001
v 1.000000 1.960000 0.900000
v 1.000000 2.960000 0.900000
v 1.000000 0.960000 0.900000
v 1.000000 3.960000 0.900000
v 1.000000 3.000000 0.900000
v 1.000000 1.000000 0.900000
v 1.000000 2.000000 0.900000
v 1.000000 0.250000 0.900000
v 0.000000 0.000000 0.900000
v 0.000000 0.000000 -0.900000
v 0.100000 0.000000 0.900000
v 0.900000 0.000000 0.900000
v 0.100000 0.000000 -0.900000
v 0.900000 0.000000 -0.900000
vt 0.7937 0.9562
vt 0.7835 0.9562
vt 0.7937 0.9420
vt 0.8894 0.4656
vt 0.8896 0.2378
vt 0.9258 0.2378
vt 0.9277 0.4656
vt 0.1951 0.7073
vt 0.1951 0.9351
vt 0.1747 0.9237
vt 0.1747 0.7187
vt 0.3282 0.9353
vt 0.3281 0.7076
vt 0.3791 0.7076
vt 0.3772 0.9353
vt 0.3219 0.7076
vt 0.3218 0.9353
vt 0.2727 0.9353
vt 0.2709 0.7076
vt 0.9278 0.7073
vt 0.9641 0.7073
vt 0.9643 0.9351
vt 0.9260 0.9351
vt 0.2137 0.4728
vt 0.4179 0.4730
vt 0.4179 0.7008
vt 0.2137 0.7006
vt 0.1177 0.9351
vt 0.1175 0.7073
vt 0.1686 0.7073
vt 0.1667 0.9351
vt 0.8244 0.9351
vt 0.8245 0.7073
vt 0.8735 0.7073
vt 0.8754 0.9351
vt 0.8322 0.7004
vt 0.8324 0.4727
vt 0.8814 0.4727
vt 0.8833 0.7004
vt 0.2139 0.9353
vt 0.2137 0.7076
vt 0.2647 0.7076
vt 0.2629 0.9353
vt 0.0542 0.7073
vt 0.0542 0.9351
vt 0.0031 0.9351
vt 0.0031 0.7073
vt 0.9277 0.7005
vt 0.8894 0.7005
vt 0.8894 0.4727
vt 0.9277 0.4727
vt 0.8571 0.9419
vt 0.8673 0.9419
vt 0.8673 0.9823
vt 0.8571 0.9823
vt 0.3852 0.9195
vt 0.3955 0.9195
vt 0.3955 0.9741
vt 0.3852 0.9741
vt 0.7671 0.9420
vt 0.7774 0.9420
vt 0.7774 0.9562
vt 0.7671 0.9562
vt 0.2013 0.9488
vt 0.2013 0.9374
vt 0.2033 0.9374
vt 0.2033 0.9488
vt 0.1441 0.9966
vt 0.1339 0.9966
vt 0.1339 0.9419
vt 0.1441 0.9419
vt 0.9252 0.0034
vt 0.9273 0.0034
vt 0.9273 0.2084
vt 0.9252 0.2084
vt 0.4016 0.9195
vt 0.4118 0.9195
vt 0.4118 0.9741
vt 0.4016 0.9741
vt 0.0919 0.9534
vt 0.0919 0.9420
vt 0.0939 0.9420
vt 0.0939 0.9534
vt 0.0837 0.9534
vt 0.0837 0.9420
vt 0.0858 0.9420
vt 0.0858 0.9534
vt 0.0776 0.9420
vt 0.0776 0.9562
vt 0.0674 0.9562
vt 0.0674 0.9420
vt 0.8080 0.9420
vt 0.8101 0.9420
vt 0.8101 0.9534
vt 0.8080 0.9534
vt 0.8407 0.9966
vt 0.8407 0.9419
vt 0.8509 0.9419
vt 0.8509 0.9966
vt 0.7998 0.9420
vt 0.8019 0.9420
vt 0.8019 0.9534
vt 0.7998 0.9534
vt 0.2013 0.9192
vt 0.2033 0.9192
vt 0.2033 0.9306
vt 0.2013 0.9306
vt 0.8244 0.9966
vt 0.8244 0.9419
vt 0.8346 0.9419
vt 0.8346 0.9966
vt 0.1083 0.9420
vt 0.1103 0.9420
vt 0.1103 0.9534
vt 0.1083 0.9534
vt 0.1175 0.9966
vt 0.1175 0.9419
vt 0.1277 0.9419
vt 0.1277 0.9966
vt 0.1604 0.9419
vt 0.1604 0.9823
vt 0.1502 0.9823
vt 0.1502 0.9419
vt 0.9109 0.0034
vt 0.9109 0.2084
vt 0.8981 0.2084
vt 0.8981 0.0034
vt 0.8833 0.2378
vt 0.8833 0.4658
vt 0.8450 0.4659
vt 0.8470 0.2379
vt 0.9198 0.7074
vt 0.9198 0.9354
vt 0.8836 0.9353
vt 0.8815 0.7073
vt 0.4179 0.0034
vt 0.4077 0.2312
vt 0.2238 0.2312
vt 0.2136 0.0034
vt 0.4240 0.4841
vt 0.6284 0.4727
vt 0.6284 0.7005
vt 0.4240 0.6891
vt 0.5895 0.7073
vt 0.5895 0.9353
vt 0.5384 0.9354
vt 0.5404 0.7074
vt 0.6466 0.7074
vt 0.6466 0.9354
vt 0.5976 0.9353
vt 0.5956 0.7073
vt 0.2013 0.9124
vt 0.2013 0.7073
vt 0.2033 0.7073
vt 0.2033 0.9124
vt 0.9806 0.9354
vt 0.9704 0.7079
vt 0.9806 0.7073
vt 0.9825 0.2384
vt 0.9723 0.4659
vt 0.9723 0.2378
vt 0.8389 0.4659
vt 0.6345 0.4545
vt 0.6345 0.2494
vt 0.8389 0.2381
vt 0.4179 0.2381
vt 0.4179 0.4658
vt 0.2137 0.4660
vt 0.2137 0.2383
vt 0.4118 0.9126
vt 0.4118 0.7076
vt 0.4139 0.7076
vt 0.4139 0.9126
vt 0.2074 0.0034
vt 0.1972 0.2312
vt 0.0133 0.2312
vt 0.0031 0.0034
vt 0.2074 0.6891
vt 0.0031 0.7005
vt 0.0031 0.4727
vt 0.2074 0.4841
vt 0.5323 0.7073
vt 0.5323 0.9353
vt 0.4812 0.9354
vt 0.4833 0.7074
vt 0.4751 0.7074
vt 0.4751 0.9354
vt 0.4261 0.9353
vt 0.4240 0.7073
vt 0.9170 0.2084
vt 0.9170 0.0034
vt 0.9191 0.0034
vt 0.9191 0.2084
vt 0.6345 0.0148
vt 0.8389 0.0034
vt 0.8389 0.2312
vt 0.6345 0.2198
vt 0.7610 0.7074
vt 0.7610 0.9354
vt 0.7120 0.9353
vt 0.7100 0.7073
vt 0.6528 0.9354
vt 0.6548 0.7074
vt 0.7038 0.7073
vt 0.7038 0.9353
vt 0.4343 0.2312
vt 0.4240 0.0034
vt 0.6284 0.0034
vt 0.6182 0.2312
vt 0.8182 0.7073
vt 0.8182 0.9351
vt 0.7671 0.9351
vt 0.7671 0.7073
vt 0.9531 0.4428
vt 0.9534 0.2606
vt 0.9662 0.2378
vt 0.9662 0.4658
vt 0.1001 0.9534
vt 0.1001 0.9420
vt 0.1021 0.9420
vt 0.1021 0.9534
vt 0.2074 0.2381
vt 0.1972 0.4659
vt 0.0133 0.4659
vt 0.0031 0.2381
vt 0.0603 0.7073
vt 0.1114 0.7073
vt 0.1114 0.9351
vt 0.0603 0.9351
vt 0.0347 0.9420
vt 0.0449 0.9420
vt 0.0449 0.9647
vt 0.0183 0.9420
vt 0.0286 0.9420
vt 0.0286 0.9647
vt 0.8716 0.0034
vt 0.8920 0.0034
vt 0.8920 0.2084
vt 0.8716 0.2084
vt 0.8654 0.2084
vt 0.8450 0.2084
vt 0.8450 0.0034
vt 0.8654 0.0034
vt 0.6284 0.2494
vt 0.6284 0.4545
vt 0.4240 0.4659
vt 0.4240 0.2381
vt 0.9470 0.2378
vt 0.9470 0.4658
vt 0.9342 0.4431
vt 0.9338 0.2609
vt 0.3852 0.9126
vt 0.3852 0.7076
vt 0.4057 0.7076
vt 0.4057 0.9126
vt 0.8450 0.2153
vt 0.8552 0.2295
vt 0.8450 0.2295
vt 0.0122 0.9420
vt 0.0122 0.9674
vt 0.0031 0.9471
vt 0.9969 0.7301
vt 0.9969 0.9123
vt 0.9867 0.9351
vt 0.9867 0.7073
vt 0.0510 0.9647
vt 0.0612 0.9420
vt 0.0612 0.9647
vt 0.9528 0.6777
vt 0.9528 0.4955
vt 0.9630 0.4727
vt 0.9630 0.7005
vt 0.9339 0.4841
vt 0.9466 0.4727
vt 0.9466 0.7005
vt 0.9339 0.6891
vt 0.8261 0.7005
vt 0.8261 0.4727
vt 0.6345 0.4727
vt 0.6345 0.7005
vn -1.0000 0.0000 0.0000
vn -0.0000 -0.0000 1.0000
vn 0.9285 0.3714 0.0000
vn 0.0000 0.0000 -1.0000
vn 1.0000 0.0000 0.0000
vn -0.0995 0.0000 -0.9950
vn -0.0995 -0.0000 0.9950
vn -0.0400 -0.9992 0.0000
vn 0.0000 1.0000 0.0000
vn -0.0544 0.1958 0.9791
vn 0.0000 -1.0000 0.0000
vn -0.0544 0.1958 -0.9791
vn -0.9285 0.3714 0.0000
usemtl ShelfMaterial
s off
f 4/1/1 54/2/1 16/3/1
f 12/4/2 24/5/2 19/6/2 10/7/2
f 16/8/3 12/9/3 55/10/3 57/11/3
f 30/12/4 14/13/4 15/14/4 25/15/4
f 10/16/2 22/17/2 17/18/2 11/19/2
f 27/20/4 32/21/4 16/22/4 14/23/4
f 4/24/4 8/25/4 5/26/4 1/27/4
f 31/28/4 15/29/4 13/30/4 26/31/4
f 11/32/2 23/33/2 18/34/2 9/35/2
f 9/36/2 21/37/2 20/38/2 7/39/2
f 29/40/4 13/41/4 8/42/4 28/43/4
f 10/44/5 14/45/5 15/46/5 11/47/5
f 16/48/5 14/49/5 10/50/5 12/51/5
f 27/52/5 37/53/5 42/54/5 32/55/5
f 28/56/5 38/57/5 39/58/5 29/59/5
f 32/60/5 42/61/5 33/62/5 1/63/5
f 29/64/5 39/65/5 36/66/5 26/67/5
f 25/68/5 35/69/5 40/70/5 30/71/5
f 50/72/5 47/73/5 37/74/5 40/75/5
f 26/76/5 36/77/5 41/78/5 31/79/5
f 31/80/5 41/81/5 35/82/5 25/83/5
f 5/84/5 34/85/5 38/86/5 28/87/5
f 24/88/5 2/89/5 43/90/5 52/91/5
f 21/92/5 18/93/5 46/94/5 49/95/5
f 17/96/5 22/97/5 50/98/5 45/99/5
f 22/100/5 19/101/5 47/102/5 50/103/5
f 6/104/5 20/105/5 48/106/5 44/107/5
f 18/108/5 23/109/5 51/110/5 46/111/5
f 23/112/5 17/113/5 45/114/5 51/115/5
f 20/116/5 21/117/5 49/118/5 48/119/5
f 19/120/5 24/121/5 52/122/5 47/123/5
f 43/124/5 33/125/5 42/126/5 52/127/5
f 52/128/6 12/129/6 10/130/6 47/131/6
f 16/132/7 42/133/7 37/134/7 14/135/7
f 14/136/8 37/137/8 47/138/8 10/139/8
f 40/140/9 14/141/9 10/142/9 50/143/9
f 50/144/6 10/145/6 11/146/6 45/147/6
f 14/148/7 40/149/7 35/150/7 15/151/7
f 34/152/5 44/153/5 48/154/5 38/155/5
f 7/156/9 6/157/9 44/158/9
f 5/159/9 8/160/9 34/161/9
f 7/162/9 44/163/9 34/164/9 8/165/9
f 3/166/2 2/167/2 6/168/2 7/169/2
f 41/170/5 51/171/5 45/172/5 35/173/5
f 15/174/8 35/175/8 45/176/8 11/177/8
f 41/178/9 15/179/9 11/180/9 51/181/9
f 51/182/6 11/183/6 9/184/6 46/185/6
f 15/186/7 41/187/7 36/188/7 13/189/7
f 39/190/5 49/191/5 46/192/5 36/193/5
f 39/194/9 13/195/9 9/196/9 49/197/9
f 13/198/7 39/199/7 38/200/7 8/201/7
f 7/202/6 48/203/6 49/204/6 9/205/6
f 48/206/8 7/207/8 8/208/8 38/209/8
f 11/210/5 15/211/5 13/212/5 9/213/5
f 57/214/10 58/215/10 42/216/10 16/217/10
f 30/218/5 40/219/5 37/220/5 27/221/5
f 13/222/8 36/223/8 46/224/8 9/225/8
f 7/226/5 9/227/5 13/228/5 8/229/5
f 1/230/11 33/231/11 58/232/11
f 3/233/11 53/234/11 55/235/11
f 54/236/11 57/237/11 55/238/11 53/239/11
f 43/240/11 56/241/11 58/242/11 33/243/11
f 52/244/9 42/245/9 16/246/9 12/247/9
f 12/248/12 52/249/12 56/250/12 55/251/12
f 58/252/13 56/253/13 52/254/13 42/255/13
f 12/256/1 53/257/1 3/258/1
f 2/259/11 56/260/11 43/261/11
f 58/262/11 57/263/11 4/264/11 1/265/11
f 4/266/11 57/267/11 54/268/11
f 55/269/11 56/270/11 2/271/11 3/272/11
f 53/273/1 12/274/1 16/275/1 54/276/1
f 16/277/1 12/278/1 7/279/1 8/280/1
